<?xml version="1.0" encoding="UTF-8" standalone="no"?>
<!-- Created with Inkscape (http://www.inkscape.org/) -->

<svg
   xmlns:dc="http://purl.org/dc/elements/1.1/"
   xmlns:cc="http://creativecommons.org/ns#"
   xmlns:rdf="http://www.w3.org/1999/02/22-rdf-syntax-ns#"
   xmlns:svg="http://www.w3.org/2000/svg"
   xmlns="http://www.w3.org/2000/svg"
   xmlns:xlink="http://www.w3.org/1999/xlink"
   xmlns:sodipodi="http://sodipodi.sourceforge.net/DTD/sodipodi-0.dtd"
   xmlns:inkscape="http://www.inkscape.org/namespaces/inkscape"
   width="744.09448819"
   height="1052.3622047"
   id="svg2998"
   version="1.1"
   inkscape:version="0.48.4 r9939"
   sodipodi:docname="bob_as_vector.svg">
  <defs
     id="defs3000" />
  <sodipodi:namedview
     id="base"
     pagecolor="#ffffff"
     bordercolor="#666666"
     borderopacity="1.0"
     inkscape:pageopacity="0.0"
     inkscape:pageshadow="2"
     inkscape:zoom="2.2527296"
     inkscape:cx="188.57141"
     inkscape:cy="857.94935"
     inkscape:document-units="px"
     inkscape:current-layer="layer1"
     showgrid="false"
     inkscape:window-width="1209"
     inkscape:window-height="632"
     inkscape:window-x="-8"
     inkscape:window-y="-8"
     inkscape:window-maximized="1" />
  <metadata
     id="metadata3003">
    <rdf:RDF>
      <cc:Work
         rdf:about="">
        <dc:format>image/svg+xml</dc:format>
        <dc:type
           rdf:resource="http://purl.org/dc/dcmitype/StillImage" />
        <dc:title></dc:title>
      </cc:Work>
    </rdf:RDF>
  </metadata>
  <g
     inkscape:label="Layer 1"
     inkscape:groupmode="layer"
     id="layer1">
    <image
       y="161.57649"
       x="132.07141"
       id="image3014"
       xlink:href="file:///C:/Users/NietsNiemand/Documents/cpvanity/ios/bob.jpg"
       height="113"
       width="113" />
    <path
       style="fill:none;stroke:#ff0000;stroke-width:1px;stroke-linecap:butt;stroke-linejoin:miter;stroke-opacity:1"
       d="m 185.55268,262.65354 c 0,0 0.55453,-1.91858 0.4439,-2.88538 -0.18117,-1.58334 -0.79394,-3.18364 -1.77562,-4.43906 -1.40393,-1.79542 -2.59394,-2.17895 -4.10613,-3.88418 -1.62583,-1.83339 -4.18911,-4.23312 -4.99394,-6.54761 -1.03467,-2.97544 0.0104,-9.12297 -1.55367,-9.32203 -1.56404,-0.19906 -5.55664,4.01763 -8.87812,6.21469 -0.31465,0.20813 -0.90686,0.43121 -1.22075,0.22195 -0.31385,-0.20926 -0.24563,-1.37832 1e-5,-1.66465 1.87937,-2.19072 2.68539,-2.71353 4.10613,-4.32808 1.90361,-2.16329 4.65581,-3.77949 5.77077,-6.43664 0.47686,-1.13644 0.71437,-2.5543 0.2353,-3.68981 -1.12493,-2.66632 -4.78577,-3.38871 -6.59167,-5.65 -2.65782,-3.32803 -5.385,-7.08044 -5.96389,-11.3 -0.53835,-3.924 1.07964,-7.92086 2.51111,-11.61389 1.88087,-4.85243 4.81337,-9.26881 7.84722,-13.49722 5.86285,-8.17134 11.14306,-13.34028 11.14306,-13.34028 0,0 3.87755,-4.57918 6.57753,-5.49711 1.05304,-0.35801 2.3319,-0.27023 3.3293,0.22195 3.61997,1.78633 5.56601,5.87239 7.9903,9.10008 3.05677,4.06978 5.80321,8.38959 8.21226,12.87327 2.06926,3.85127 3.89638,6.6165 4.88297,10.8757 0.45109,1.94738 0.48391,5.22023 0.33293,7.21347 -0.23891,3.15417 -0.76989,6.34506 -2.10856,9.21104 -1.33501,2.85813 -2.02973,3.72103 -3.99515,5.99273 -1.49122,1.7236 -3.77836,3.44727 -5.77078,4.88296 -0.59117,0.42599 -2.08582,1.71819 -1.99757,2.44149 0.10216,0.83734 0.99141,1.36873 1.55367,1.99758 2.75492,3.0812 8.87812,8.65616 8.87812,8.65616 0,0 2.13472,1.28323 2.10855,2.3305 -0.0118,0.47069 -0.53233,0.93473 -0.99879,0.9988 -1.34554,0.18482 -3.55124,-1.99758 -3.55124,-1.99758 0,0 0.3965,0.25757 -4.66102,-3.7732 -1.67775,-1.33715 -0.63722,2.69471 -1.22074,6.99151 -0.30735,2.26318 -1.6522,4.78723 -3.10734,6.54763 -1.57458,1.90489 -2.05269,2.22698 -3.21832,3.77319 -1.25495,1.66469 -2.07321,3.49688 -2.44148,5.54882 -0.21074,1.1742 0.22195,3.7732 0.22195,3.7732 0,0 4.86578,-0.82974 7.32445,-0.88781 2.52155,-0.0596 5.132,-0.17483 7.5464,0.55488 1.58557,0.47921 3.25553,1.17922 4.32808,2.44149 0.76537,0.90076 1.31763,2.15125 1.22075,3.32929 -0.10454,1.27127 -2.34565,2.91265 -3.55125,3.3293 -3.14836,1.08806 -4.83434,0.84911 -7.99031,0.77683 -3.44652,-0.0789 -4.38779,0.0941 -8.43421,-0.88781 -1.37595,-0.3339 -4.31543,-2.00367 -4.31543,-2.00367 0,0 -1.80982,1.60194 -2.78707,2.11465 -1.90698,1.00049 -4.28356,0.84469 -6.43663,0.88781 -3.22107,0.0645 -6.48753,0.14506 -9.65496,-0.44391 -1.84013,-0.34217 -4.10598,-0.35697 -5.32687,-1.77562 -0.56332,-0.65457 -0.61877,-1.70676 -0.4439,-2.55246 0.2597,-1.25594 1.15048,-2.36571 2.10855,-3.21832 1.17404,-1.04481 2.70017,-1.69759 4.21711,-2.10855 2.18269,-0.59132 4.509,-0.50424 6.76956,-0.44391 2.49519,0.0666 7.43543,0.88781 7.43543,0.88781 z"
       id="path3025"
       inkscape:connector-curvature="0"
       sodipodi:nodetypes="csssssssssszsssscssssssssssscsscssssscssssssscssssssssc" />
    <path
       sodipodi:type="arc"
       style="fill:none;stroke:#ff0000;stroke-opacity:1"
       id="path3797"
       sodipodi:cx="140.60721"
       sodipodi:cy="260.32303"
       sodipodi:rx="2.1085532"
       sodipodi:ry="4.4390593"
       d="m 138.57277,261.48965 a 2.1085532,4.4390593 0 1 1 0.006,0.0446"
       sodipodi:start="2.8756617"
       sodipodi:end="9.1484071"
       sodipodi:open="true"
       transform="matrix(1.0051156,0,0,0.95243878,48.221339,10.272724)" />
    <path
       sodipodi:type="arc"
       style="fill:none;stroke:#ff0000;stroke-opacity:1"
       id="path3799"
       sodipodi:cx="190.99052"
       sodipodi:cy="240.34727"
       sodipodi:rx="9.654954"
       sodipodi:ry="10.09886"
       d="m 181.69572,243.07981 a 9.654954,10.09886 0 1 1 0.006,0.0231"
       sodipodi:start="2.867599"
       sodipodi:end="9.1484071"
       sodipodi:open="true" />
    <path
       sodipodi:type="arc"
       style="fill:none;stroke:#ff0000;stroke-opacity:1"
       id="path3801"
       sodipodi:cx="191.37894"
       sodipodi:cy="242.95522"
       sodipodi:rx="1.609159"
       sodipodi:ry="2.0530648"
       d="m 189.82634,243.49478 a 1.609159,2.0530648 0 1 1 0.005,0.0207"
       sodipodi:start="2.8756617"
       sodipodi:end="9.1484071"
       sodipodi:open="true" />
    <path
       sodipodi:type="arc"
       style="fill:none;stroke:#ff0000;stroke-opacity:1"
       id="path3803"
       sodipodi:cx="178.61665"
       sodipodi:cy="268.59079"
       sodipodi:rx="7.0470066"
       sodipodi:ry="2.275018"
       d="m 171.81736,269.18868 a 7.0470066,2.275018 0 1 1 0.0197,0.0229"
       sodipodi:start="2.8756617"
       sodipodi:end="9.1484071"
       sodipodi:open="true"
       transform="matrix(0.9720403,-0.09193193,0.09645028,1.019815,-21.078052,10.488084)" />
    <path
       sodipodi:type="arc"
       style="fill:none;stroke:#ff0000;stroke-opacity:1"
       id="path3807"
       sodipodi:cx="200.03511"
       sodipodi:cy="267.31454"
       sodipodi:rx="7.0470066"
       sodipodi:ry="2.8853886"
       d="m 193.23582,268.07285 a 7.0470066,2.8853886 0 1 1 0.0197,0.029"
       sodipodi:start="2.8756617"
       sodipodi:end="9.1484071"
       sodipodi:open="true"
       transform="matrix(0.97131912,0.09783976,-0.08119489,0.80489961,27.774665,33.19215)" />
    <path
       style="fill:none;stroke:#ff0000;stroke-width:1px;stroke-linecap:butt;stroke-linejoin:miter;stroke-opacity:1"
       d="m 151.70485,242.89973 c 2.82778,-0.46391 5.51416,-0.57938 8.43421,-0.11098 0.54299,0.0871 1.2078,0.55999 1.22074,1.10977 0.0856,3.63567 -0.17102,5.61046 -0.4439,8.65616 -0.0858,0.95796 -0.30951,1.797 -0.66586,2.77442 -0.16472,0.4518 -0.72819,1.6244 -1.77562,-0.66586 -0.65311,-1.42806 -0.52528,-2.25353 -0.99879,-3.66223 -0.0898,-0.26704 -0.56579,-0.51954 -0.77684,-0.33293 -1.23752,1.09419 -1.35363,1.06128 -2.55246,2.10856 -0.39398,0.34418 -1.73435,0.69853 -2.10855,0.33293 -0.48285,-0.47175 -0.4097,-1.34917 0.55488,-2.55246 0.8685,-1.08343 1.3488,-1.27228 1.8866,-2.55246 0.21539,-0.51271 0.36423,-1.16955 0.11098,-1.66465 -0.15892,-0.3107 -0.55706,-0.44357 -0.88781,-0.55488 -1.16175,-0.39097 -0.61649,0.3026 -3.66223,-0.33293 -0.60269,-0.12576 -1.29499,-0.74457 -1.10977,-1.33172 0.26452,-0.83856 5.56055,-1.47871 6.43665,-1.55367"
       id="path3809"
       inkscape:connector-curvature="0"
       sodipodi:nodetypes="csssssssssssssssc" />
    <path
       style="fill:none;stroke:#ff0000;stroke-width:1px;stroke-linecap:butt;stroke-linejoin:miter;stroke-opacity:1"
       d="m 224.60949,242.97492 c -2.82778,-0.46391 -5.51416,-0.57938 -8.43421,-0.11098 -0.54299,0.0871 -1.2078,0.55999 -1.22074,1.10977 -0.0856,3.63567 0.17102,5.61046 0.4439,8.65616 0.0858,0.95796 0.30951,1.797 0.66586,2.77442 0.16472,0.4518 0.72819,1.6244 1.77562,-0.66586 0.65311,-1.42806 0.52528,-2.25353 0.99879,-3.66223 0.0898,-0.26704 0.56579,-0.51954 0.77684,-0.33293 1.23752,1.09419 1.35363,1.06128 2.55246,2.10856 0.39398,0.34418 1.73435,0.69853 2.10855,0.33293 0.48285,-0.47175 0.4097,-1.34917 -0.55488,-2.55246 -0.8685,-1.08343 -1.3488,-1.27228 -1.8866,-2.55246 -0.21539,-0.51271 -0.36423,-1.16955 -0.11098,-1.66465 0.15892,-0.3107 0.55706,-0.44357 0.88781,-0.55488 1.16175,-0.39097 0.61649,0.3026 3.66223,-0.33293 0.60269,-0.12576 1.29499,-0.74457 1.10977,-1.33172 -0.26452,-0.83856 -5.56055,-1.47871 -6.43665,-1.55367"
       id="path3809-7"
       inkscape:connector-curvature="0"
       sodipodi:nodetypes="csssssssssssssssc" />
    <path
       style="fill:none;stroke:#ff0000;stroke-width:1px;stroke-linecap:butt;stroke-linejoin:miter;stroke-opacity:1"
       d="m 192.57083,169.86357 c -0.8071,0.13825 -1.57077,0.57127 -2.19722,1.09861 -1.88912,1.59025 -2.95909,3.95455 -4.39444,5.96389 -2.88484,4.03847 -5.86579,8.01987 -8.475,12.24167 -1.94479,3.14674 -4.17596,6.21797 -5.33611,9.73055 -0.8446,2.5572 -1.33168,5.3212 -1.09862,8.00417 0.23768,2.7361 1.22719,5.41941 2.51112,7.84722 0.99314,1.87796 2.38543,3.55694 3.92361,5.02222 1.57642,1.5017 3.40667,2.75797 5.33611,3.76667 2.17058,1.13477 4.49814,2.05996 6.90555,2.51111 2.36587,0.44337 4.89677,0.78866 7.21945,0.15695 2.78791,-0.75824 5.20995,-2.63988 7.37639,-4.55139 2.06461,-1.82166 3.91906,-3.98662 5.17916,-6.43472 1.24316,-2.41518 1.88532,-4.38693 2.35417,-7.06251 0.24447,-1.39511 0.71308,-4.39314 0.62777,-5.80694 -0.21197,-3.51273 -0.60867,-4.88095 -1.88332,-8.16111 -1.53063,-3.93891 -4.8761,-8.72505 -7.21945,-12.24167 -1.97289,-2.96068 -3.96653,-5.92713 -6.27778,-8.63194 -1.00931,-1.18118 -1.90015,-2.61322 -3.29583,-3.29583 -0.37889,-0.18531 -0.83984,-0.22816 -1.25556,-0.15695 z"
       id="path3869"
       inkscape:connector-curvature="0"
       sodipodi:nodetypes="ssssssssssssssssssss" />
    <path
       sodipodi:type="arc"
       style="fill:none;stroke:#ff0000;stroke-opacity:1"
       id="path3871"
       sodipodi:cx="185.82222"
       sodipodi:cy="202.90038"
       sodipodi:rx="8.7888889"
       sodipodi:ry="14.046528"
       d="m 177.34228,206.59191 a 8.7888889,14.046528 0 1 1 0.0246,0.14129"
       sodipodi:start="2.8756617"
       sodipodi:end="9.1484071"
       sodipodi:open="true"
       transform="matrix(1.0004574,0,0,0.98353055,-0.08499549,3.5770737)" />
    <path
       sodipodi:type="arc"
       style="fill:none;stroke:#ff0000;stroke-opacity:1"
       id="path3873"
       sodipodi:cx="186.68541"
       sodipodi:cy="203.60663"
       sodipodi:rx="5.571528"
       sodipodi:ry="9.7305555"
       d="m 181.30973,206.16389 a 5.571528,9.7305555 0 1 1 0.0156,0.0979"
       sodipodi:start="2.8756617"
       sodipodi:end="9.1484071"
       sodipodi:open="true"
       transform="matrix(1.1471862,0,0,1.0278386,-28.026816,-5.9820142)" />
    <path
       sodipodi:type="arc"
       style="fill:none;stroke:#ff0000;stroke-opacity:1"
       id="path3875"
       sodipodi:cx="186.68541"
       sodipodi:cy="202.74344"
       sodipodi:rx="2.1187501"
       sodipodi:ry="5.1006947"
       d="m 184.64114,204.08394 a 2.1187501,5.1006947 0 1 1 0.006,0.0513"
       sodipodi:start="2.8756617"
       sodipodi:end="9.1484071"
       sodipodi:open="true"
       transform="matrix(1.0683069,0,0,0.98223132,-12.908862,3.6809556)" />
    <path
       sodipodi:type="arc"
       style="fill:none;stroke:#ff0000;stroke-opacity:1"
       id="path3877"
       sodipodi:cx="199.55486"
       sodipodi:cy="202.50801"
       sodipodi:rx="6.8270831"
       sodipodi:ry="12.869445"
       d="m 192.96776,205.8902 a 6.8270831,12.869445 0 1 1 0.0191,0.12945"
       sodipodi:start="2.8756617"
       sodipodi:end="9.1484071"
       sodipodi:open="true"
       transform="matrix(1.0352515,0,0,0.94554783,-4.758903,11.419358)" />
    <path
       sodipodi:type="arc"
       style="fill:none;stroke:#ff0000;stroke-opacity:1"
       id="path3879"
       sodipodi:cx="202.14444"
       sodipodi:cy="202.8219"
       sodipodi:rx="4.3944445"
       sodipodi:ry="9.1027775"
       d="m 197.90447,205.21418 a 4.3944445,9.1027775 0 1 1 0.0123,0.0916"
       sodipodi:start="2.8756617"
       sodipodi:end="9.1484071"
       sodipodi:open="true" />
    <path
       sodipodi:type="arc"
       style="fill:none;stroke:#ff0000;stroke-opacity:1"
       id="path3881"
       sodipodi:cx="201.90903"
       sodipodi:cy="202.90038"
       sodipodi:rx="1.1770834"
       sodipodi:ry="4.6298609"
       d="m 200.77332,204.11714 a 1.1770834,4.6298609 0 1 1 0.003,0.0466"
       sodipodi:start="2.8756617"
       sodipodi:end="9.1484071"
       sodipodi:open="true"
       transform="matrix(1.2805798,0,0,0.98660928,-56.259241,2.716982)" />
    <path
       style="fill:none;stroke:#ff0000;stroke-width:1px;stroke-linecap:butt;stroke-linejoin:miter;stroke-opacity:1"
       d="m 332.10057,228.17134 c 0,0 0.55453,-1.91858 0.4439,-2.88538 -0.18117,-1.58334 -0.79394,-3.18364 -1.77562,-4.43906 -1.40393,-1.79542 -2.59394,-2.17895 -4.10613,-3.88418 -1.62583,-1.83339 -4.18911,-4.23312 -4.99394,-6.54761 -1.03467,-2.97544 0.0104,-9.12297 -1.55367,-9.32203 -1.56404,-0.19906 -5.55664,4.01763 -8.87812,6.21469 -0.31465,0.20813 -0.90686,0.43121 -1.22075,0.22195 -0.31385,-0.20926 -0.24563,-1.37832 1e-5,-1.66465 1.87937,-2.19072 2.68539,-2.71353 4.10613,-4.32808 1.90361,-2.16329 4.65581,-3.77949 5.77077,-6.43664 0.47686,-1.13644 0.71437,-2.5543 0.2353,-3.68981 -1.12493,-2.66632 -4.78577,-3.38871 -6.59167,-5.65 -2.65782,-3.32803 -5.385,-7.08044 -5.96389,-11.3 -0.53835,-3.924 1.07964,-7.92086 2.51111,-11.61389 1.88087,-4.85243 4.81337,-9.26881 7.84722,-13.49722 5.86285,-8.17134 11.14306,-13.34029 11.14306,-13.34029 0,0 3.87755,-4.57918 6.57753,-5.49711 1.05304,-0.35801 2.3319,-0.27023 3.3293,0.22195 3.61997,1.78633 5.56601,5.87239 7.9903,9.10009 3.05677,4.06978 5.80321,8.38959 8.21226,12.87327 2.06926,3.85127 3.89638,6.6165 4.88297,10.8757 0.45109,1.94738 0.48391,5.22023 0.33293,7.21347 -0.23891,3.15417 -0.76989,6.34506 -2.10856,9.21104 -1.33501,2.85813 -2.02973,3.72103 -3.99515,5.99273 -1.49122,1.7236 -3.77836,3.44727 -5.77078,4.88296 -0.59117,0.42599 -2.08582,1.71819 -1.99757,2.44149 0.10216,0.83734 0.99141,1.36873 1.55367,1.99758 2.75492,3.0812 8.87812,8.65616 8.87812,8.65616 0,0 2.13472,1.28323 2.10855,2.3305 -0.0118,0.47069 -0.53233,0.93473 -0.99879,0.9988 -1.34554,0.18482 -3.55124,-1.99758 -3.55124,-1.99758 0,0 0.3965,0.25757 -4.66102,-3.7732 -1.67775,-1.33715 -0.63722,2.69471 -1.22074,6.99151 -0.30735,2.26318 -1.6522,4.78723 -3.10734,6.54763 -1.57458,1.90489 -2.05269,2.22698 -3.21832,3.77319 -1.25495,1.66469 -2.07321,3.49688 -2.44148,5.54882 -0.21074,1.1742 0.22195,3.7732 0.22195,3.7732 0,0 4.86578,-0.82974 7.32445,-0.88781 2.52155,-0.0596 5.132,-0.17483 7.5464,0.55488 1.58557,0.47921 3.25553,1.17922 4.32808,2.44148 0.76537,0.90076 1.31763,2.15125 1.22075,3.32929 -0.10454,1.27127 -2.34565,2.91265 -3.55125,3.3293 -3.14836,1.08806 -4.83434,0.84911 -7.99031,0.77683 -3.44652,-0.0789 -4.38779,0.0941 -8.43421,-0.88781 -1.37595,-0.3339 -4.31543,-2.00367 -4.31543,-2.00367 0,0 -1.80982,1.60194 -2.78707,2.11465 -1.90698,1.00049 -4.28356,0.84469 -6.43663,0.88781 -3.22107,0.0645 -6.48753,0.14506 -9.65496,-0.44391 -1.84013,-0.34217 -4.10598,-0.35697 -5.32687,-1.77562 -0.56332,-0.65457 -0.61877,-1.70676 -0.4439,-2.55246 0.2597,-1.25594 1.15048,-2.36571 2.10855,-3.21832 1.17404,-1.0448 2.70017,-1.69758 4.21711,-2.10854 2.18269,-0.59132 4.509,-0.50424 6.76956,-0.44391 2.49519,0.0666 7.43543,0.88781 7.43543,0.88781 z"
       id="path3025-4"
       inkscape:connector-curvature="0"
       sodipodi:nodetypes="csssssssssszsssscssssssssssscsscssssscssssssscssssssssc"
       inkscape:export-filename="C:\Users\NietsNiemand\Documents\cpvanity\bob_bitmap.png"
       inkscape:export-xdpi="1131.6088"
       inkscape:export-ydpi="1131.6088" />
    <path
       sodipodi:type="arc"
       style="fill:none;stroke:#ff0000;stroke-opacity:1"
       id="path3797-0"
       sodipodi:cx="140.60721"
       sodipodi:cy="260.32303"
       sodipodi:rx="2.1085532"
       sodipodi:ry="4.4390593"
       d="m 138.57277,261.48965 a 2.1085532,4.4390593 0 1 1 0.006,0.0446"
       sodipodi:start="2.8756617"
       sodipodi:end="9.1484071"
       sodipodi:open="true"
       transform="matrix(1.0051156,0,0,0.95243878,194.76924,-24.209481)"
       inkscape:export-filename="C:\Users\NietsNiemand\Documents\cpvanity\bob_bitmap.png"
       inkscape:export-xdpi="1131.6088"
       inkscape:export-ydpi="1131.6088" />
    <path
       transform="translate(146.5479,-34.482211)"
       sodipodi:type="arc"
       style="fill:none;stroke:#ff0000;stroke-opacity:1"
       id="path3799-9"
       sodipodi:cx="190.99052"
       sodipodi:cy="240.34727"
       sodipodi:rx="9.654954"
       sodipodi:ry="10.09886"
       d="m 181.69572,243.07981 a 9.654954,10.09886 0 1 1 0.006,0.0231"
       sodipodi:start="2.867599"
       sodipodi:end="9.1484071"
       sodipodi:open="true"
       inkscape:export-filename="C:\Users\NietsNiemand\Documents\cpvanity\bob_bitmap.png"
       inkscape:export-xdpi="1131.6088"
       inkscape:export-ydpi="1131.6088" />
    <path
       transform="translate(146.5479,-34.482211)"
       sodipodi:type="arc"
       style="fill:none;stroke:#ff0000;stroke-opacity:1"
       id="path3801-4"
       sodipodi:cx="191.37894"
       sodipodi:cy="242.95522"
       sodipodi:rx="1.609159"
       sodipodi:ry="2.0530648"
       d="m 189.82634,243.49478 a 1.609159,2.0530648 0 1 1 0.005,0.0207"
       sodipodi:start="2.8756617"
       sodipodi:end="9.1484071"
       sodipodi:open="true"
       inkscape:export-filename="C:\Users\NietsNiemand\Documents\cpvanity\bob_bitmap.png"
       inkscape:export-xdpi="1131.6088"
       inkscape:export-ydpi="1131.6088" />
    <path
       sodipodi:type="arc"
       style="fill:none;stroke:#ff0000;stroke-opacity:1"
       id="path3803-8"
       sodipodi:cx="178.61665"
       sodipodi:cy="268.59079"
       sodipodi:rx="7.0470066"
       sodipodi:ry="2.275018"
       d="m 171.81736,269.18868 a 7.0470066,2.275018 0 1 1 0.0197,0.0229"
       sodipodi:start="2.8756617"
       sodipodi:end="9.1484071"
       sodipodi:open="true"
       transform="matrix(0.9720403,-0.09193193,0.09645028,1.019815,125.46985,-23.994121)"
       inkscape:export-filename="C:\Users\NietsNiemand\Documents\cpvanity\bob_bitmap.png"
       inkscape:export-xdpi="1131.6088"
       inkscape:export-ydpi="1131.6088" />
    <path
       sodipodi:type="arc"
       style="fill:none;stroke:#ff0000;stroke-opacity:1"
       id="path3807-8"
       sodipodi:cx="200.03511"
       sodipodi:cy="267.31454"
       sodipodi:rx="7.0470066"
       sodipodi:ry="2.8853886"
       d="m 193.23582,268.07285 a 7.0470066,2.8853886 0 1 1 0.0197,0.029"
       sodipodi:start="2.8756617"
       sodipodi:end="9.1484071"
       sodipodi:open="true"
       transform="matrix(0.97131912,0.09783976,-0.08119489,0.80489961,174.32257,-1.2900608)"
       inkscape:export-filename="C:\Users\NietsNiemand\Documents\cpvanity\bob_bitmap.png"
       inkscape:export-xdpi="1131.6088"
       inkscape:export-ydpi="1131.6088" />
    <path
       style="fill:none;stroke:#ff0000;stroke-width:1px;stroke-linecap:butt;stroke-linejoin:miter;stroke-opacity:1"
       d="m 298.25274,208.41753 c 2.82778,-0.46391 5.51416,-0.57938 8.43421,-0.11098 0.54299,0.0871 1.2078,0.55999 1.22074,1.10977 0.0856,3.63567 -0.17102,5.61046 -0.4439,8.65616 -0.0858,0.95796 -0.30951,1.797 -0.66586,2.77442 -0.16472,0.4518 -0.72819,1.6244 -1.77562,-0.66586 -0.65311,-1.42806 -0.52528,-2.25353 -0.99879,-3.66223 -0.0898,-0.26704 -0.56579,-0.51954 -0.77684,-0.33293 -1.23752,1.09419 -1.35363,1.06128 -2.55246,2.10856 -0.39398,0.34418 -1.73435,0.69853 -2.10855,0.33293 -0.48285,-0.47175 -0.4097,-1.34917 0.55488,-2.55246 0.8685,-1.08343 1.3488,-1.27228 1.8866,-2.55246 0.21539,-0.51271 0.36423,-1.16955 0.11098,-1.66465 -0.15892,-0.3107 -0.55706,-0.44357 -0.88781,-0.55488 -1.16175,-0.39097 -0.61649,0.3026 -3.66223,-0.33293 -0.60269,-0.12576 -1.29499,-0.74457 -1.10977,-1.33172 0.26452,-0.83856 5.56055,-1.47871 6.43665,-1.55367"
       id="path3809-2"
       inkscape:connector-curvature="0"
       sodipodi:nodetypes="csssssssssssssssc"
       inkscape:export-filename="C:\Users\NietsNiemand\Documents\cpvanity\bob_bitmap.png"
       inkscape:export-xdpi="1131.6088"
       inkscape:export-ydpi="1131.6088" />
    <path
       style="fill:none;stroke:#ff0000;stroke-width:1px;stroke-linecap:butt;stroke-linejoin:miter;stroke-opacity:1"
       d="m 371.15738,208.49272 c -2.82778,-0.46391 -5.51416,-0.57938 -8.43421,-0.11098 -0.54299,0.0871 -1.2078,0.55999 -1.22074,1.10977 -0.0856,3.63567 0.17102,5.61046 0.4439,8.65616 0.0858,0.95796 0.30951,1.797 0.66586,2.77442 0.16472,0.4518 0.72819,1.6244 1.77562,-0.66586 0.65311,-1.42806 0.52528,-2.25353 0.99879,-3.66223 0.0898,-0.26704 0.56579,-0.51954 0.77684,-0.33293 1.23752,1.09419 1.35363,1.06128 2.55246,2.10856 0.39398,0.34418 1.73435,0.69853 2.10855,0.33293 0.48285,-0.47175 0.4097,-1.34917 -0.55488,-2.55246 -0.8685,-1.08343 -1.3488,-1.27228 -1.8866,-2.55246 -0.21539,-0.51271 -0.36423,-1.16955 -0.11098,-1.66465 0.15892,-0.3107 0.55706,-0.44357 0.88781,-0.55488 1.16175,-0.39097 0.61649,0.3026 3.66223,-0.33293 0.60269,-0.12576 1.29499,-0.74457 1.10977,-1.33172 -0.26452,-0.83856 -5.56055,-1.47871 -6.43665,-1.55367"
       id="path3809-7-4"
       inkscape:connector-curvature="0"
       sodipodi:nodetypes="csssssssssssssssc"
       inkscape:export-filename="C:\Users\NietsNiemand\Documents\cpvanity\bob_bitmap.png"
       inkscape:export-xdpi="1131.6088"
       inkscape:export-ydpi="1131.6088" />
    <path
       style="fill:none;stroke:#ff0000;stroke-width:1px;stroke-linecap:butt;stroke-linejoin:miter;stroke-opacity:1"
       d="m 339.11872,135.38136 c -0.8071,0.13825 -1.57077,0.57127 -2.19722,1.09861 -1.88912,1.59025 -2.95909,3.95456 -4.39444,5.9639 -2.88484,4.03847 -5.86579,8.01987 -8.475,12.24167 -1.94479,3.14674 -4.17596,6.21797 -5.33611,9.73055 -0.8446,2.5572 -1.33168,5.3212 -1.09862,8.00417 0.23768,2.7361 1.22719,5.41941 2.51112,7.84722 0.99314,1.87796 2.38543,3.55694 3.92361,5.02222 1.57642,1.5017 3.40667,2.75797 5.33611,3.76667 2.17058,1.13477 4.49814,2.05996 6.90555,2.51111 2.36587,0.44337 4.89677,0.78866 7.21945,0.15695 2.78791,-0.75824 5.20995,-2.63988 7.37639,-4.55139 2.06461,-1.82166 3.91906,-3.98662 5.17916,-6.43472 1.24316,-2.41518 1.88532,-4.38693 2.35417,-7.06251 0.24447,-1.39511 0.71308,-4.39314 0.62777,-5.80694 -0.21197,-3.51273 -0.60867,-4.88095 -1.88332,-8.16111 -1.53063,-3.93891 -4.8761,-8.72505 -7.21945,-12.24167 -1.97289,-2.96068 -3.96653,-5.92713 -6.27778,-8.63195 -1.00931,-1.18118 -1.90015,-2.61322 -3.29583,-3.29583 -0.37889,-0.18531 -0.83984,-0.22816 -1.25556,-0.15695 z"
       id="path3869-5"
       inkscape:connector-curvature="0"
       sodipodi:nodetypes="ssssssssssssssssssss"
       inkscape:export-filename="C:\Users\NietsNiemand\Documents\cpvanity\bob_bitmap.png"
       inkscape:export-xdpi="1131.6088"
       inkscape:export-ydpi="1131.6088" />
    <path
       sodipodi:type="arc"
       style="fill:none;stroke:#ff0000;stroke-opacity:1"
       id="path3871-5"
       sodipodi:cx="185.82222"
       sodipodi:cy="202.90038"
       sodipodi:rx="8.7888889"
       sodipodi:ry="14.046528"
       d="m 177.34228,206.59191 a 8.7888889,14.046528 0 1 1 0.0246,0.14129"
       sodipodi:start="2.8756617"
       sodipodi:end="9.1484071"
       sodipodi:open="true"
       transform="matrix(1.0004574,0,0,0.98353055,146.4629,-30.905131)"
       inkscape:export-filename="C:\Users\NietsNiemand\Documents\cpvanity\bob_bitmap.png"
       inkscape:export-xdpi="1131.6088"
       inkscape:export-ydpi="1131.6088" />
    <path
       sodipodi:type="arc"
       style="fill:none;stroke:#ff0000;stroke-opacity:1"
       id="path3873-1"
       sodipodi:cx="186.68541"
       sodipodi:cy="203.60663"
       sodipodi:rx="5.571528"
       sodipodi:ry="9.7305555"
       d="m 181.30973,206.16389 a 5.571528,9.7305555 0 1 1 0.0156,0.0979"
       sodipodi:start="2.8756617"
       sodipodi:end="9.1484071"
       sodipodi:open="true"
       transform="matrix(1.1471862,0,0,1.0278386,118.52108,-40.464221)"
       inkscape:export-filename="C:\Users\NietsNiemand\Documents\cpvanity\bob_bitmap.png"
       inkscape:export-xdpi="1131.6088"
       inkscape:export-ydpi="1131.6088" />
    <path
       sodipodi:type="arc"
       style="fill:none;stroke:#ff0000;stroke-opacity:1"
       id="path3875-7"
       sodipodi:cx="186.68541"
       sodipodi:cy="202.74344"
       sodipodi:rx="2.1187501"
       sodipodi:ry="5.1006947"
       d="m 184.64114,204.08394 a 2.1187501,5.1006947 0 1 1 0.006,0.0513"
       sodipodi:start="2.8756617"
       sodipodi:end="9.1484071"
       sodipodi:open="true"
       transform="matrix(1.0683069,0,0,0.98223132,133.63904,-30.801251)"
       inkscape:export-filename="C:\Users\NietsNiemand\Documents\cpvanity\bob_bitmap.png"
       inkscape:export-xdpi="1131.6088"
       inkscape:export-ydpi="1131.6088" />
    <path
       sodipodi:type="arc"
       style="fill:none;stroke:#ff0000;stroke-opacity:1"
       id="path3877-1"
       sodipodi:cx="199.55486"
       sodipodi:cy="202.50801"
       sodipodi:rx="6.8270831"
       sodipodi:ry="12.869445"
       d="m 192.96776,205.8902 a 6.8270831,12.869445 0 1 1 0.0191,0.12945"
       sodipodi:start="2.8756617"
       sodipodi:end="9.1484071"
       sodipodi:open="true"
       transform="matrix(1.0352515,0,0,0.94554783,141.789,-23.062851)"
       inkscape:export-filename="C:\Users\NietsNiemand\Documents\cpvanity\bob_bitmap.png"
       inkscape:export-xdpi="1131.6088"
       inkscape:export-ydpi="1131.6088" />
    <path
       transform="translate(146.5479,-34.482211)"
       sodipodi:type="arc"
       style="fill:none;stroke:#ff0000;stroke-opacity:1"
       id="path3879-1"
       sodipodi:cx="202.14444"
       sodipodi:cy="202.8219"
       sodipodi:rx="4.3944445"
       sodipodi:ry="9.1027775"
       d="m 197.90447,205.21418 a 4.3944445,9.1027775 0 1 1 0.0123,0.0916"
       sodipodi:start="2.8756617"
       sodipodi:end="9.1484071"
       sodipodi:open="true"
       inkscape:export-filename="C:\Users\NietsNiemand\Documents\cpvanity\bob_bitmap.png"
       inkscape:export-xdpi="1131.6088"
       inkscape:export-ydpi="1131.6088" />
    <path
       sodipodi:type="arc"
       style="fill:none;stroke:#ff0000;stroke-opacity:1"
       id="path3881-5"
       sodipodi:cx="201.90903"
       sodipodi:cy="202.90038"
       sodipodi:rx="1.1770834"
       sodipodi:ry="4.6298609"
       d="m 200.77332,204.11714 a 1.1770834,4.6298609 0 1 1 0.003,0.0466"
       sodipodi:start="2.8756617"
       sodipodi:end="9.1484071"
       sodipodi:open="true"
       transform="matrix(1.2805798,0,0,0.98660928,90.288656,-31.765221)"
       inkscape:export-filename="C:\Users\NietsNiemand\Documents\cpvanity\bob_bitmap.png"
       inkscape:export-xdpi="1131.6088"
       inkscape:export-ydpi="1131.6088" />
  </g>
</svg>
